<svg xmlns="http://www.w3.org/2000/svg" width="172.728" height="60" viewBox="0 0 172.728 60">
  <g id="Grupo_3764" data-name="Grupo 3764" style="isolation: isolate">
    <g id="Grupo_3519" data-name="Grupo 3519" transform="translate(0 0)">
      <path id="Caminho_14645" data-name="Caminho 14645" d="M2694.379,451.9h0a4.1,4.1,0,0,0-4.1,4.1v49.446a4.1,4.1,0,0,0,8.192,0V456A4.1,4.1,0,0,0,2694.379,451.9Z" transform="translate(-2578.544 -450.754)" fill="#5a646e" fill-rule="evenodd"/>
      <path id="Caminho_14646" data-name="Caminho 14646" d="M2544.45,481.965h0a4.1,4.1,0,0,0-4.1,4.1v36.107a4.1,4.1,0,0,0,8.191,0V486.061A4.1,4.1,0,0,0,2544.45,481.965Z" transform="translate(-2495.124 -467.478)" fill="#5a646e" fill-rule="evenodd"/>
      <path id="Caminho_14647" data-name="Caminho 14647" d="M2548.252,454.564a5.25,5.25,0,0,1-10.5,0,5.249,5.249,0,0,1,10.5,0Z" transform="translate(-2493.677 -449.315)" fill="#00aeef" fill-rule="evenodd"/>
      <path id="Caminho_14648" data-name="Caminho 14648" d="M2617.42,493.586a23.621,23.621,0,0,0-23.868-14.1,23.338,23.338,0,1,0,16.574,41.788,4.069,4.069,0,0,0,.165-6.329h0a4.066,4.066,0,0,0-5.1-.16,15.034,15.034,0,0,1-9.937,3.108,15.323,15.323,0,0,1-13.4-9.546,1.59,1.59,0,0,1,1.465-2.2h28.434a6.913,6.913,0,0,0,6.938-6.9,15.347,15.347,0,0,0-1.268-5.663Zm-21.45-6.1a15.209,15.209,0,0,1,14.13,9.583,1.587,1.587,0,0,1-1.473,2.176h-25.314a1.587,1.587,0,0,1-1.472-2.176A15.208,15.208,0,0,1,2595.97,487.49Z" transform="translate(-2513.084 -466.033)" fill="#5a646e" fill-rule="evenodd"/>
      <path id="Caminho_14649" data-name="Caminho 14649" d="M2745.9,528.04a15.205,15.205,0,0,1-11.476-25.186l-6.177-5.281a23.332,23.332,0,1,0,35.465,30.328l-6.174-5.279A15.175,15.175,0,0,1,2745.9,528.04Z" transform="translate(-2596.503 -476.162)" fill="#5a646e" fill-rule="evenodd"/>
      <path id="Caminho_14650" data-name="Caminho 14650" d="M2753.023,479.367a23.281,23.281,0,0,0-17.653,8.075l6.177,5.282a15.207,15.207,0,0,1,23.113,19.766l6.174,5.28a23.332,23.332,0,0,0-17.811-38.4Z" transform="translate(-2603.628 -466.032)" fill="#00aeef" fill-rule="evenodd"/>
      <path id="Caminho_14651" data-name="Caminho 14651" d="M2476.077,514.974a4.091,4.091,0,0,0-5.129-.184,15.212,15.212,0,1,1-.038-24.206,4.063,4.063,0,0,0,4.984-6.419,23.332,23.332,0,1,0,.061,37.025A4.011,4.011,0,0,0,2476.077,514.974Z" transform="translate(-2438.392 -466.032)" fill="#5a646e" fill-rule="evenodd"/>
    </g>
  </g>
</svg>
