<svg id="use-rede-logo-rede-itau-branco-0322-71x29" xmlns="http://www.w3.org/2000/svg" width="146.519" height="60" viewBox="0 0 146.519 60">
  <path id="Caminho_21226" data-name="Caminho 21226" d="M54.91,36.21V22h2.7V36.21Z" transform="translate(58.697 23.515)" fill="#ec7000"/>
  <path id="Caminho_21227" data-name="Caminho 21227" d="M62.323,36.226a3.556,3.556,0,0,1-2.674-.937,3.864,3.864,0,0,1-.9-2.79v-5.39H57.017V25.086h1.727V22.181h2.611v2.905H63.8v2.022H61.355v5.159a2.158,2.158,0,0,0,.379,1.4,1.45,1.45,0,0,0,1.178.453,2.879,2.879,0,0,0,1.178-.252v2.043A5.152,5.152,0,0,1,62.323,36.226Z" transform="translate(60.949 23.711)" fill="#ec7000"/>
  <path id="Caminho_21228" data-name="Caminho 21228" d="M64.513,34.928a3.714,3.714,0,0,1-2.568-.863,2.95,2.95,0,0,1-.968-2.316,3.292,3.292,0,0,1,1.475-2.874,7.3,7.3,0,0,1,4.191-1.021h.464c.154,0,.3.008.443.021a2.477,2.477,0,0,0-.674-1.748,2.606,2.606,0,0,0-1.833-.568,6.27,6.27,0,0,0-3.117.884V24.338a7.555,7.555,0,0,1,3.517-.884,4.592,4.592,0,0,1,3.411,1.21,4.707,4.707,0,0,1,1.2,3.464v6.527H67.885l-.148-1.263a3.479,3.479,0,0,1-1.358,1.127A4.28,4.28,0,0,1,64.513,34.928Zm.716-1.854a2.234,2.234,0,0,0,1.653-.695,2.312,2.312,0,0,0,.684-1.685V29.621c-.14,0-.284,0-.432-.011s-.3-.011-.453-.011a4.9,4.9,0,0,0-2.39.474,1.607,1.607,0,0,0-.346,2.558A1.82,1.82,0,0,0,65.229,33.075Z" transform="translate(65.182 25.072)" fill="#ec7000"/>
  <path id="Caminho_21229" data-name="Caminho 21229" d="M70,37.246a3.353,3.353,0,0,1-2.685-1.169,4.648,4.648,0,0,1-1-3.127V26.043h2.611v6.486a3.054,3.054,0,0,0,.515,1.905,1.745,1.745,0,0,0,1.464.663,1.889,1.889,0,0,0,1.528-.695,2.8,2.8,0,0,0,.578-1.852V26.043h2.611V36.971H73.351L73.2,35.687a3.441,3.441,0,0,1-1.358,1.157A4.18,4.18,0,0,1,70,37.246Zm1.9-12.676H69.6l2.253-3.285H74.7Z" transform="translate(70.892 22.754)" fill="#ec7000"/>
  <path id="Caminho_21230" data-name="Caminho 21230" d="M144.948,30.085H112.627c-4.709,0-6.7-1.842-7.519-4.285h10.184c6.806,0,11-3,11-9.473s-4.189-9.807-11-9.807h-3.236c-6.1,0-13.514,3.547-15.073,12.043H87.874V0H80.162V18.565h-9.52c-9.125.045-14.208,4.665-14.869,11.52H39.843c-4.708,0-6.7-1.842-7.519-4.285H42.508c6.808,0,11-3,11-9.473s-4.189-9.807-11-9.807H39.272c-6.1,0-13.513,3.547-15.073,12.043H17.518c-4.189,0-7.9,1.286-9.949,3.809V19.134H0v26.7c0,1.523.476,2,1.952,2H5.761c1.428,0,1.952-.476,1.952-2V35.32c0-7.95,5-9.521,10.139-9.521H24.27c1.6,7.888,8.208,11.662,15.86,11.662H56.735c1.908,4.563,6.463,6.951,13.766,6.951h4.425c7.237,0,13.328-5.141,13.328-12.71V25.8h8.8c1.6,7.888,8.208,11.662,15.859,11.662h32.037a1.594,1.594,0,0,0,1.57-1.618V31.6A1.545,1.545,0,0,0,144.948,30.085ZM38.986,13.756h3.76c1.715,0,2.9.715,2.9,2.428,0,1.618-1.189,2.38-2.9,2.38H32.111C32.741,15.882,34.51,13.756,38.986,13.756ZM80.162,31.94a5.055,5.055,0,0,1-5.237,5.141H69.974c-4,0-6.617-1.571-6.617-5.522,0-3.856,2.618-5.759,6.617-5.759H80.16v6.14Zm31.607-18.184h3.761c1.713,0,2.9.715,2.9,2.428,0,1.618-1.191,2.38-2.9,2.38H104.893C105.525,15.882,107.294,13.756,111.769,13.756Z" fill="#ec7000"/>
</svg>
