<svg xmlns="http://www.w3.org/2000/svg" width="224.747" height="59.995" viewBox="0 0 224.747 59.995">
  <g id="Grupo_3762" data-name="Grupo 3762" transform="translate(0 0)" style="isolation: isolate">
    <path id="Caminho_19940" data-name="Caminho 19940" d="M201.522,60a24.95,24.95,0,0,1-4.992-.5,24.636,24.636,0,0,1-8.857-3.727,24.845,24.845,0,0,1-8.975-10.9,24.656,24.656,0,0,1-1.443-4.65,24.952,24.952,0,0,1-.5-4.992V32.5a24.952,24.952,0,0,1,.5-4.992,24.625,24.625,0,0,1,3.727-8.857,24.846,24.846,0,0,1,10.9-8.975,24.649,24.649,0,0,1,4.65-1.443,32.564,32.564,0,0,1,5.284-.486c.3-.008,1.526.041,2.985.171a23.276,23.276,0,0,1,3.715.571,20.994,20.994,0,0,1,9.665,5.95,24.909,24.909,0,0,1,6.512,17.384c.026.563.03,1,.03,1.167,0,.629.469,3.482-2.549,4.055H188.8v.909c1.028,5.872,5.652,11.817,12.5,11.817h1.818a14.427,14.427,0,0,0,12.036-6.856.607.607,0,0,1,.51-.276c.4.006.471.161.471.161l6.479,5.586a1.171,1.171,0,0,1,.238.6,1.075,1.075,0,0,1-.238.581,29.3,29.3,0,0,1-2.435,2.948,24.806,24.806,0,0,1-7.874,5.309,29.967,29.967,0,0,1-5.1,1.671,24.951,24.951,0,0,1-4.992.5Zm-12.58-31.588h24.546c-.678-5.877-5-10.908-11.057-10.908h-1.818C194.705,17.5,189.893,22.359,188.942,28.407ZM93.347,60a24.951,24.951,0,0,1-4.992-.5A24.636,24.636,0,0,1,79.5,55.765a24.841,24.841,0,0,1-8.975-10.9,24.637,24.637,0,0,1-1.443-4.65,24.949,24.949,0,0,1-.5-4.992V32.5a24.947,24.947,0,0,1,.5-4.992,24.638,24.638,0,0,1,3.727-8.858,24.847,24.847,0,0,1,10.9-8.975,24.666,24.666,0,0,1,4.65-1.443,24.965,24.965,0,0,1,4.992-.5h1.364a24.962,24.962,0,0,1,4.992.5,24.634,24.634,0,0,1,8.858,3.727,24.839,24.839,0,0,1,8.975,10.9,24.645,24.645,0,0,1,1.443,4.65,24.962,24.962,0,0,1,.5,4.992v2.727a24.964,24.964,0,0,1-.5,4.992,24.638,24.638,0,0,1-3.727,8.858,24.841,24.841,0,0,1-10.9,8.975,24.637,24.637,0,0,1-4.65,1.443,24.948,24.948,0,0,1-4.992.5ZM79.953,36.314a14.09,14.09,0,0,0,28.126.435c.012-.154.162-1.568.163-2.974,0-1.3-.148-2.592-.162-2.791a14.09,14.09,0,0,0-28.1.008c-.013.161-.136,1.4-.141,2.782C79.834,34.906,79.949,36.2,79.953,36.314ZM1.45,56.471S.383,56.133.118,55.6a1.636,1.636,0,0,1,0-1.188l1.477-6.894a1.247,1.247,0,0,1,.7-.55,1.855,1.855,0,0,1,.987.215,33.9,33.9,0,0,0,13.841,3.245c5.33,0,8.79-2.244,8.79-5.984,0-4.114-1.885-5.089-11.221-6.905C4.868,35.794.008,30.1.008,22.808c0-8.228,7.062-15.081,21.12-15.081,5.977,0,13.019,3.285,13.019,3.285a.92.92,0,0,1,.455.489,1.463,1.463,0,0,1-.1.771l-2.057,6.976s-.176.452-.531.549a1.62,1.62,0,0,1-.889-.162s-7.077-2.8-11.472-2.8c-4.769,0-8.389,2.191-8.389,5.183,0,4.695,2.728,4.883,11.288,6.652,8.639,1.84,14.439,5.689,14.439,14.479,0,10.285-8.3,16.4-19.61,16.4C6.89,59.034,1.45,56.471,1.45,56.471Zm45.331-1.509c-3.836-3.7-3.469-12.176-3.43-12.9,0-.007,0-.013,0-.02V.909A.909.909,0,0,1,44.26,0h9.772a.909.909,0,0,1,.909.909V9.09h9.431a.909.909,0,0,1,.909.909v8.863a.909.909,0,0,1-.909.909H55.4V42.042a.908.908,0,0,1-.052.3c-.01,1.414.225,3.972,1.923,5.172,2.415,1.705,7.333.66,7.333.66a.909.909,0,0,1,.909.909v8.181c0,.5-1.667,1.633-6.33,1.633S50.79,58.832,46.781,54.962Zm112.7,3.215a.909.909,0,0,1-.909-.909V27.725a9.783,9.783,0,0,0-9.772-9.772h-1.364a9.783,9.783,0,0,0-9.772,9.772v6.136h0V57.268a.909.909,0,0,1-.909.909h-9.772a.909.909,0,0,1-.909-.909V27.952a20.13,20.13,0,0,1,3.454-11.308,20.286,20.286,0,0,1,8.9-7.328A20.1,20.1,0,0,1,146.3,7.727h3.636a20.128,20.128,0,0,1,11.308,3.454,20.286,20.286,0,0,1,7.328,8.9,20.1,20.1,0,0,1,1.589,7.873V57.268a.909.909,0,0,1-.909.909Z" transform="translate(0 0)" fill="#00a868"/>
  </g>
</svg>
