<svg xmlns="http://www.w3.org/2000/svg" width="267.173" height="60" viewBox="0 0 267.173 60">
  <g id="Grupo_3765" data-name="Grupo 3765" transform="translate(0)" style="isolation: isolate">
    <g id="Grupo_3512" data-name="Grupo 3512" transform="translate(0 0)">
      <path id="Caminho_19900" data-name="Caminho 19900" d="M8384.669-19437.965h-6.687a2.093,2.093,0,0,1-1.814-1.055l-8.884-15.426a2.025,2.025,0,0,1-.283-1.045,2.037,2.037,0,0,1,.283-1.035l8.884-15.437a2.1,2.1,0,0,1,1.814-1.045h17.765a2.112,2.112,0,0,1,1.817,1.045l8.886,15.438a2.032,2.032,0,0,1,.279,1.035,2.041,2.041,0,0,1-.279,1.045l-3.674,6.391h-4.383l3.677-6.391a2.092,2.092,0,0,0,0-2.088l-6.694-11.619a2.108,2.108,0,0,0-1.816-1.051h-13.39a2.1,2.1,0,0,0-1.812,1.051l-6.7,11.619a2.083,2.083,0,0,0,0,2.088l6.7,11.617a2.107,2.107,0,0,0,1.812,1.063h6.7Z" transform="translate(-8153.273 19473.008)" fill="#158ef6"/>
      <path id="Caminho_19899" data-name="Caminho 19899" d="M8395.747-19306.963h-17.765a2.091,2.091,0,0,1-1.814-1.057l-8.884-15.42a2.094,2.094,0,0,1-.283-1.045,2.122,2.122,0,0,1,.283-1.053l8.884-15.424a2.108,2.108,0,0,1,1.814-1.045h6.687l2.194,3.811h-6.693a2.111,2.111,0,0,0-1.812,1.045l-6.7,11.613a2.1,2.1,0,0,0,0,2.1l6.7,11.617a2.077,2.077,0,0,0,1.812,1.049h13.39a2.091,2.091,0,0,0,1.816-1.049l6.694-11.617a2.111,2.111,0,0,0,0-2.1l-3.677-6.379h4.383l3.674,6.379a2.117,2.117,0,0,1,.279,1.053,2.11,2.11,0,0,1-.279,1.045l-8.886,15.42a2.068,2.068,0,0,1-.771.775A2.1,2.1,0,0,1,8395.747-19306.963Z" transform="translate(-8166.988 19366.963)" fill="#a171fb"/>
      <path id="Caminho_19898" data-name="Caminho 19898" d="M8425.572-19437.965h-17.767a2.107,2.107,0,0,1-1.82-1.055l-3.011-5.227,2.189-3.8.1.184,2.908,5.039a2.122,2.122,0,0,0,1.816,1.063h13.386a2.123,2.123,0,0,0,1.82-1.062l6.692-11.617a2.083,2.083,0,0,0,0-2.088l-6.692-11.619a2.116,2.116,0,0,0-1.82-1.051h-13.386a2.115,2.115,0,0,0-1.816,1.051l-3.016,5.244h-4.384l5.208-9.055a2.122,2.122,0,0,1,1.82-1.045h17.767a2.106,2.106,0,0,1,1.814,1.045l8.885,15.438a2.034,2.034,0,0,1,.282,1.035,2.043,2.043,0,0,1-.282,1.045l-8.885,15.426a2.114,2.114,0,0,1-.768.779A2.151,2.151,0,0,1,8425.572-19437.965Z" transform="translate(-8169.38 19497.965)" fill="#17c2cc"/>
      <path id="Caminho_19901" data-name="Caminho 19901" d="M8387.291-19427.67h-.483L8367-19473.008h10.281l13.907,31.822,13.9-31.822h10.285l-19.808,45.338Z" transform="translate(-8367.001 19480.816)" fill="#000050"/>
      <path id="Caminho_19902" data-name="Caminho 19902" d="M8403.857-19300.064H8395.1v-9.174l8.759-6.131v15.3Z" transform="translate(-8283.477 19353.207)" fill="#158ef6"/>
      <path id="Caminho_19908" data-name="Caminho 19908" d="M8367-19473.008h8.76v5.352c.539-.437,1.1-.85,1.673-1.242a25.511,25.511,0,0,1,4.089-2.219,24.513,24.513,0,0,1,4.523-1.4,23.932,23.932,0,0,1,4.857-.488,23.836,23.836,0,0,1,4.853.488,24.2,24.2,0,0,1,4.524,1.4,23.523,23.523,0,0,1,2.735,1.381l-8.684,6.082a14.625,14.625,0,0,0-3.429-.4,15.287,15.287,0,0,0-15.143,13.281v.117l-8.76,6.133Z" transform="translate(-8255.376 19480.816)" fill="#000050"/>
      <path id="Caminho_19904" data-name="Caminho 19904" d="M8385.946-19425.3a23.432,23.432,0,0,1-4.454-1.406,23.2,23.2,0,0,1-4.03-2.219,23.187,23.187,0,0,1-3.511-2.951,23.686,23.686,0,0,1-2.9-3.561,23.945,23.945,0,0,1-2.186-4.1,24.265,24.265,0,0,1-1.388-4.525,24.908,24.908,0,0,1-.477-4.848,25.023,25.023,0,0,1,.477-4.857,24.2,24.2,0,0,1,1.388-4.523,24.608,24.608,0,0,1,2.186-4.1,24.877,24.877,0,0,1,2.9-3.568,24.714,24.714,0,0,1,3.511-2.943,24.423,24.423,0,0,1,4.03-2.219,23.612,23.612,0,0,1,4.454-1.4,23.179,23.179,0,0,1,4.782-.49,23.126,23.126,0,0,1,4.78.49,23.587,23.587,0,0,1,4.456,1.4,25.04,25.04,0,0,1,4.031,2.219,24.218,24.218,0,0,1,3.509,2.943,24.674,24.674,0,0,1,2.9,3.568,24.221,24.221,0,0,1,2.189,4.1,24.553,24.553,0,0,1,1.382,4.523,24.345,24.345,0,0,1,.482,4.857,24.991,24.991,0,0,1-.308,3.893h-37.832a14.987,14.987,0,0,0,14.41,11.246c5.407,0,12.47-2.422,15.105-7.232l7.015,5.625c-.149.461-4.553,5.045-9.757,7.994a23.221,23.221,0,0,1-6.359,2.08,37.258,37.258,0,0,1-6,.488A23.714,23.714,0,0,1,8385.946-19425.3Zm18.908-28.463a14.955,14.955,0,0,0-14.126-10.291,14.951,14.951,0,0,0-14.125,10.291Z" transform="translate(-8314.443 19479.104)" fill="#000050"/>
      <path id="Caminho_19907" data-name="Caminho 19907" d="M8581.189-19369.029a24.111,24.111,0,0,1-4.854-.488,23.594,23.594,0,0,1-4.525-1.4,24.423,24.423,0,0,1-4.087-2.217,24.563,24.563,0,0,1-3.567-2.945,24.755,24.755,0,0,1-2.943-3.572,23.964,23.964,0,0,1-2.22-4.082,24.248,24.248,0,0,1-1.4-4.523,24.473,24.473,0,0,1-.492-4.865,24.42,24.42,0,0,1,.492-4.855,24.413,24.413,0,0,1,1.269-4.2l21.452-15.035c.3,0,.594,0,.88,0a23.912,23.912,0,0,1,4.858.486,24.079,24.079,0,0,1,4.522,1.4,24.552,24.552,0,0,1,4.09,2.227,24.162,24.162,0,0,1,3.569,2.945,23.381,23.381,0,0,1,2.939,3.566,24.245,24.245,0,0,1,2.224,4.088,23.966,23.966,0,0,1,1.4,4.521,24.134,24.134,0,0,1,.492,4.855,24.187,24.187,0,0,1-.492,4.865,23.941,23.941,0,0,1-1.4,4.523,24.529,24.529,0,0,1-2.224,4.082,24.519,24.519,0,0,1-2.939,3.572,24.79,24.79,0,0,1-3.569,2.945,24.222,24.222,0,0,1-4.09,2.217,23.76,23.76,0,0,1-4.522,1.4A24.194,24.194,0,0,1,8581.189-19369.029Zm0-39.229a15.15,15.15,0,0,0-15.136,15.133,15.147,15.147,0,0,0,15.136,15.139,15.153,15.153,0,0,0,15.143-15.139A15.155,15.155,0,0,0,8581.189-19408.258Z" transform="translate(-8414.612 19423.311)" fill="#158ef6"/>
    </g>
  </g>
</svg>
