<svg xmlns="http://www.w3.org/2000/svg" width="211.397" height="59.996" viewBox="0 0 211.397 59.996">
  <g id="Grupo_3763" data-name="Grupo 3763" transform="translate(0 0)" style="isolation: isolate">
    <g id="Grupo_3518" data-name="Grupo 3518" transform="translate(0 0)">
      <g id="Grupo_3516" data-name="Grupo 3516" transform="translate(0 0)">
        <path id="Caminho_19939" data-name="Caminho 19939" d="M16072.814-19855.672a19.759,19.759,0,0,1-6.11-.969l.933-3.512a10.607,10.607,0,0,0,4.922,1.221h.148a6.766,6.766,0,0,0,4.806-1.58,6.188,6.188,0,0,0,1.3-1.783,10.813,10.813,0,0,0,.8-2.281l.563-2.326a8.056,8.056,0,0,1-2.726,2.475,7.7,7.7,0,0,1-3.654.768,6.739,6.739,0,0,1-2.374-.395,4.561,4.561,0,0,1-1.684-1.107,5.28,5.28,0,0,1-1.333-3.738,11.811,11.811,0,0,1,1.241-5.361,12.225,12.225,0,0,1,1.414-2.2,13.1,13.1,0,0,1,1.816-1.826,14.322,14.322,0,0,1,2.141-1.463,15.271,15.271,0,0,1,2.366-1.072,16.7,16.7,0,0,1,2.507-.652,15.2,15.2,0,0,1,2.544-.227,22.317,22.317,0,0,1,5.725.773l-3.31,14.893c-.208.934-.423,1.74-.653,2.494a19.566,19.566,0,0,1-.8,2.131,9.861,9.861,0,0,1-2.222,3.227,8.4,8.4,0,0,1-3.395,1.889,16.985,16.985,0,0,1-4.954.621Zm3.149-20.064a10.861,10.861,0,0,0-.987,1.35,10.075,10.075,0,0,0-.751,1.545,9.685,9.685,0,0,0-.656,3.5,5,5,0,0,0,.115,1.094,2.383,2.383,0,0,0,.389.877,1.717,1.717,0,0,0,.7.57,2.594,2.594,0,0,0,1.085.2,4.735,4.735,0,0,0,3.911-2.494,15.883,15.883,0,0,0,1.977-4.861l1.021-4.242a4.532,4.532,0,0,0-1.37-.223A7.363,7.363,0,0,0,16075.964-19875.736Zm36.537,12.033a4.384,4.384,0,0,1-1.676-1.182,5.9,5.9,0,0,1-1.346-4.031,12.073,12.073,0,0,1,1.213-5.35,11.7,11.7,0,0,1,1.384-2.2,13.609,13.609,0,0,1,1.787-1.838,14.829,14.829,0,0,1,9.45-3.441,24.965,24.965,0,0,1,3.266.234,13.449,13.449,0,0,1,2.655.578l-2.456,10.992a33.088,33.088,0,0,0-.843,6.273h-4.971c.053-.674.257-1.807.47-3.012l.014-.062,0-.016c.053-.293.107-.633.186-1.066a12.417,12.417,0,0,1-1.11,1.672,8.443,8.443,0,0,1-1.467,1.463,7,7,0,0,1-1.877,1.021,7.124,7.124,0,0,1-2.351.391A6.042,6.042,0,0,1,16112.5-19863.7Zm4.468-12.025a9.809,9.809,0,0,0-2.358,6.289,3.481,3.481,0,0,0,.513,2.029,2.138,2.138,0,0,0,1.875.852c1.185,0,2.382-.762,3.459-2.225a15.037,15.037,0,0,0,2.358-5.4l.948-4.086a3.758,3.758,0,0,0-1.234-.2,1.154,1.154,0,0,0-.16.008h0A7.266,7.266,0,0,0,16116.969-19875.729Zm-65.892,12.025a4.351,4.351,0,0,1-1.668-1.182,5.9,5.9,0,0,1-1.345-4.031,11.99,11.99,0,0,1,1.208-5.35,12.538,12.538,0,0,1,1.385-2.2,13.3,13.3,0,0,1,1.791-1.838,14.809,14.809,0,0,1,9.445-3.441,24.859,24.859,0,0,1,3.266.234,13.367,13.367,0,0,1,2.655.578l-2.456,11a33.44,33.44,0,0,0-.843,6.27h-4.966c.049-.682.256-1.842.475-3.059l0-.008c.064-.371.132-.73.19-1.09a11.556,11.556,0,0,1-1.111,1.672,8.439,8.439,0,0,1-1.466,1.463,6.863,6.863,0,0,1-1.883,1.021,7.083,7.083,0,0,1-2.341.391A6.076,6.076,0,0,1,16051.077-19863.7Zm9.866-14.758h.01a7.253,7.253,0,0,0-5.4,2.732,9.788,9.788,0,0,0-2.361,6.289,3.488,3.488,0,0,0,.512,2.029,2.138,2.138,0,0,0,1.873.852,3.28,3.28,0,0,0,1.813-.594,6.68,6.68,0,0,0,1.652-1.631,15.1,15.1,0,0,0,2.358-5.4l.952-4.086a3.809,3.809,0,0,0-1.237-.2A1.252,1.252,0,0,0,16060.943-19878.461Zm32.413,14.8h-5.143l5-23.5h9.763a8.163,8.163,0,0,1,2.366.363,6.09,6.09,0,0,1,1.932,1,4.576,4.576,0,0,1,1.3,1.576,4.556,4.556,0,0,1,.479,2.092,5.766,5.766,0,0,1-.409,2.113,6.62,6.62,0,0,1-1.13,1.9,6.463,6.463,0,0,1-1.689,1.439,5.684,5.684,0,0,1-2.105.754,6.612,6.612,0,0,1,1.561.742,5.31,5.31,0,0,1,1.214,1.088,4.639,4.639,0,0,1,.8,1.408,5.035,5.035,0,0,1,.279,1.689,6.313,6.313,0,0,1-.4,2.154,7.24,7.24,0,0,1-1.1,1.943,6.684,6.684,0,0,1-3.755,2.416h0v0a18.278,18.278,0,0,1-2.4.564,25.313,25.313,0,0,1-2.762.262h-3.795Zm.521-3.277h3.2s.718-.023,1.256-.094a6.268,6.268,0,0,0,.915-.191h0a3.884,3.884,0,0,0,2.16-1.506,4.557,4.557,0,0,0,.636-1.193,3.782,3.782,0,0,0,.23-1.293,2.718,2.718,0,0,0-1.1-2.254,3.51,3.51,0,0,0-1.185-.59,5.151,5.151,0,0,0-1.457-.2h-3.094Zm2.205-10.383h2.729s.714-.027,1.256-.094a5.848,5.848,0,0,0,.915-.18h0v-.023a3.891,3.891,0,0,0,2.16-1.439,4.458,4.458,0,0,0,.632-1.129,3.367,3.367,0,0,0,.23-1.205,2.358,2.358,0,0,0-.293-1.174,2.4,2.4,0,0,0-.8-.844,4.952,4.952,0,0,0-2.646-.65h-2.745Zm-69.078,13.66,5-23.5h9.694a7.526,7.526,0,0,1,2.7.484,6.3,6.3,0,0,1,2.1,1.3,5.855,5.855,0,0,1,1.357,1.893,5.53,5.53,0,0,1,.479,2.279,9.229,9.229,0,0,1-.858,4.035,7.653,7.653,0,0,1-2.258,2.746,11.094,11.094,0,0,1-6.738,2.053v.016h-4.509l-1.828,8.7H16027Zm7.675-12.146h1.76a9.25,9.25,0,0,0,4.618-.906,3.935,3.935,0,0,0,.835-.643,3.583,3.583,0,0,0,.64-.848,4.734,4.734,0,0,0,.408-1.115,6.665,6.665,0,0,0,.145-1.4,2.528,2.528,0,0,0-.205-1,2.759,2.759,0,0,0-.567-.826,4.584,4.584,0,0,0-3.19-1.168h-2.745Zm110.677,12.018h-4.837l2.07-9.734h0v0l.037-.172h.014a8.208,8.208,0,0,0,.279-3.066,1.966,1.966,0,0,0-2.221-1.7c-3.652-.068-4.573,4.832-4.573,4.832h0l-.112.725-1.945,9.123h-4.841l3.586-16.84.025-.7h4.591l-.558,2.98a10.484,10.484,0,0,1,2.85-2.574,7.289,7.289,0,0,1,3.4-.789s3.1-.191,4.242,1.924a5.6,5.6,0,0,1,.571,2.58,10.849,10.849,0,0,1-.092,1.482,13.979,13.979,0,0,1-.417,2.029h0l-.127.787-1.941,9.123Zm20.489,0h-5.461l-4.677-9.123-1.941,9.123h-4.838l5.365-25.215h4.844l-3.176,14.922,7.562-7.25h5.729l-8.74,8.016Zm-43.476-14.672h0Z" transform="translate(-15957.854 19903.975)"/>
        <g id="Grupo_3515" data-name="Grupo 3515">
          <path id="Caminho_14807" data-name="Caminho 14807" d="M29.557,0A29.557,29.557,0,0,1,59.115,29.557v.882A29.557,29.557,0,0,1,0,30.439v-.882A29.557,29.557,0,0,1,29.557,0Z" transform="translate(0)"/>
          <ellipse id="Elipse_88" data-name="Elipse 88" cx="23.666" cy="23.769" rx="23.666" ry="23.769" transform="translate(5.605 1.868)" fill="#dfe560"/>
          <ellipse id="Elipse_90" data-name="Elipse 90" cx="21.59" cy="21.693" rx="21.59" ry="21.693" transform="translate(3.944 15.777)"/>
          <ellipse id="Elipse_91" data-name="Elipse 91" cx="19.721" cy="19.721" rx="19.721" ry="19.721" transform="translate(5.813 17.853)" fill="#a9dddb"/>
          <ellipse id="Elipse_92" data-name="Elipse 92" cx="13.805" cy="13.909" rx="13.805" ry="13.909" transform="translate(29.063 24.496)"/>
          <ellipse id="Elipse_93" data-name="Elipse 93" cx="11.937" cy="11.936" rx="11.937" ry="11.936" transform="translate(30.931 26.571)" fill="#f7df3e"/>
        </g>
      </g>
    </g>
  </g>
</svg>
