<svg xmlns="http://www.w3.org/2000/svg" width="282.678" height="59.995" viewBox="0 0 282.678 59.995">
  <g id="FA_GENET_COMPLETO_RGB_VERMELHO" transform="translate(0)" style="isolation: isolate">
    <path id="Caminho_19938" data-name="Caminho 19938" d="M265.3,308.2a77.344,77.344,0,0,0-16.575,2.323v41.432h9.115v-35.3a45.444,45.444,0,0,1,7.208-.663c9.115,0,11.267,3.15,11.267,9.7v26.27h9.115V324.111C285.436,314.082,280.551,308.2,265.3,308.2ZM154.67,344.164a40.356,40.356,0,0,1-7.625.827c-12.6,0-20.552-7.29-20.552-22.123,0-13.589,7.372-21.3,20.962-21.3a44.855,44.855,0,0,1,14.417,2.323,36.042,36.042,0,0,0,1.66-8.37,49.858,49.858,0,0,0-16.077-2.234c-19.391,0-30.575,10.774-30.575,29.912,0,17.566,10.194,30.083,29.5,30.083a49.934,49.934,0,0,0,17.566-3.068v-29.5H154.67ZM312.7,308.2c-14.5,0-20.217,9.777-20.217,22.123,0,14.17,7.372,22.622,22.622,22.622a31.356,31.356,0,0,0,13.426-2.651c.581-2.733,1.079-5.883,1.408-8.288a35.552,35.552,0,0,1-14.587,3.15c-8.117,0-12.428-3.566-13.59-10.939h29.086a49.081,49.081,0,0,0,.5-7.044C331.35,316.733,325.714,308.2,312.7,308.2Zm-11.1,18.393c.745-7.044,4.141-10.774,10.6-10.774,6.3,0,9.941,3.976,9.941,10.774Zm59.914-9.2a69.442,69.442,0,0,0,.827-7.789H347.926v-15.66a31.607,31.607,0,0,0-9.115,1.325V338.78c0,10.112,5.637,14.17,14.5,14.17a20.638,20.638,0,0,0,7.707-1.326c.5-2.4.827-5.22,1.079-7.707a20.674,20.674,0,0,1-7.126,1.244c-4.393,0-7.044-2.07-7.044-7.461V317.4Zm-120.244,0a69.455,69.455,0,0,0,.827-7.789H227.681v-15.66a31.608,31.608,0,0,0-9.115,1.325V338.78c0,10.112,5.637,14.17,14.5,14.17a20.637,20.637,0,0,0,7.707-1.326c.5-2.4.827-5.22,1.079-7.707a20.675,20.675,0,0,1-7.126,1.244c-4.393,0-7.044-2.07-7.044-7.461V317.4Zm-48.811-9.2c-14.5,0-20.217,9.777-20.217,22.123,0,14.17,7.373,22.622,22.622,22.622a31.356,31.356,0,0,0,13.426-2.651c.581-2.733,1.079-5.883,1.408-8.288a35.553,35.553,0,0,1-14.587,3.15c-8.117,0-12.428-3.566-13.59-10.939h29.086a49.09,49.09,0,0,0,.5-7.044C211.106,316.733,205.469,308.2,192.46,308.2Zm-11.109,18.393c.745-7.044,4.141-10.774,10.6-10.774,6.3,0,9.941,3.976,9.941,10.774Zm213.555-9.2h4.652v-4.652h-4.652Zm0-9.3h4.652V303.44h-4.652Zm-9.3-9.3h4.652v-4.652H385.6ZM376.3,317.4h4.652v-4.652H376.3Zm9.3-9.3h4.652V303.44H385.6Zm9.3-13.956v4.652h4.652v-4.652ZM376.3,308.092h4.652V303.44H376.3Zm0-9.3h4.652v-4.652H376.3Zm9.3,18.608h4.652v-4.652H385.6Z" transform="translate(-116.88 -293.29)" fill="#ec0000"/>
  </g>
</svg>
